<mxfile host="app.diagrams.net" modified="2024-02-05T23:46:38.865Z" agent="Mozilla/5.0 (Windows NT 10.0; Win64; x64; rv:122.0) Gecko/20100101 Firefox/122.0" version="23.1.1" etag="MZaAu2qTw_N76cn3BdHg" type="github">
  <diagram name="Page-1" id="l4NmCZWxpVPDjgJN1j2O">
    <mxGraphModel>
      <root>
        <mxCell id="0" />
        <mxCell id="1" parent="0" />
      </root>
    </mxGraphModel>
  </diagram>
</mxfile>
